<svg width="32" height="32" viewBox="0 0 32 32" fill="none" xmlns="http://www.w3.org/2000/svg">
<path d="M25 16C25 11.0294 20.9706 7 16 7C11.0294 7 7 11.0294 7 16C7 20.9706 11.0294 25 16 25C20.9706 25 25 20.9706 25 16ZM27 16C27 22.0751 22.0751 27 16 27C9.92487 27 5 22.0751 5 16C5 9.92487 9.92487 5 16 5C22.0751 5 27 9.92487 27 16Z" fill="#FFD213"/>
<path d="M22.75 16C22.75 19.7279 19.7279 22.75 16 22.75C12.2721 22.75 9.25 19.7279 9.25 16C9.25 12.2721 12.2721 9.25 16 9.25C19.7279 9.25 22.75 12.2721 22.75 16Z" fill="#FFD213"/>
</svg>
